<?xml version="1.0" encoding="UTF-8"?>
<svg xmlns="http://www.w3.org/2000/svg" viewBox="0 0 49.29 49.29">
  <defs>
    <style>
      .cls-1 {
        fill: #f2f3f4;
        mix-blend-mode: screen;
        opacity: .5;
      }

      .cls-1, .cls-2 {
        stroke-width: 0px;
      }

      .cls-3 {
        isolation: isolate;
      }

      .cls-2 {
        fill: #1a1a1a;
      }

      .cls-4 {
        mix-blend-mode: none;
      }
    </style>
  </defs>
  <g class="cls-3">
    <g id="Layer_2" data-name="Layer 2">
      <g id="Layer_1-2" data-name="Layer 1">
        <g>
          <rect class="cls-1" x="0" y="0" width="49.29" height="49.29" rx="24.64" ry="24.64"/>
          <g class="cls-4">
            <path class="cls-2" d="M38.24,19.47l-12.33-8.5c-.76-.53-1.77-.53-2.53,0l-12.33,8.5c-1.01.7-1.27,2.09-.57,3.1.7,1.01,2.09,1.27,3.1.57l.09-.06v13.24h4.46v-16.31l6.51-4.49,6.51,4.49v16.19h4.46v-13.12l.09.06c.39.27.83.39,1.26.39.71,0,1.41-.34,1.84-.96.7-1.01.44-2.4-.57-3.1Z"/>
            <path class="cls-2" d="M24.64,27.57c-1.27,0-2.31,1.04-2.31,2.31v6.44h4.61v-6.44c0-1.27-1.04-2.31-2.31-2.31Z"/>
          </g>
        </g>
      </g>
    </g>
  </g>
</svg>